{
  "accessors": [
    {
      "bufferView": 3,
      "componentType": 5126,
      "count": 1402,
      "max": [
        0.12223626673221588,
        1.675012469291687,
        0.039927635341882706
      ],
      "min": [
        -0.12373445928096771,
        1.4650737047195435,
        -0.03909905627369881
      ],
      "type": "VEC3"
    },
    {
      "bufferView": 3,
      "byteOffset": 16824,
      "componentType": 5126,
      "count": 1402,
      "max": [
        1.0,
        0.9996768236160278,
        0.9989835619926453
      ],
      "min": [
        -1.0,
        -0.9977598190307617,
        -0.996549129486084
      ],
      "type": "VEC3"
    },
    {
      "bufferView": 2,
      "componentType": 5126,
      "count": 1402,
      "max": [
        0.5625846982002258,
        0.9738335609436035
      ],
      "min": [
        0.09409881383180618,
        0.1832103133201599
      ],
      "type": "VEC2"
    },
    {
      "bufferView": 1,
      "componentType": 5125,
      "count": 6324,
      "type": "SCALAR"
    },
    {
      "bufferView": 3,
      "byteOffset": 33648,
      "componentType": 5126,
      "count": 1382,
      "max": [
        0.12393683940172195,
        1.676457166671753,
        0.041579943150281906
      ],
      "min": [
        -0.12543503940105438,
        1.4634448289871216,
        -0.04072262719273567
      ],
      "type": "VEC3"
    },
    {
      "bufferView": 3,
      "byteOffset": 50232,
      "componentType": 5126,
      "count": 1382,
      "max": [
        1.0,
        0.9977014660835266,
        0.9990763664245605
      ],
      "min": [
        -1.0,
        -0.9999722838401794,
        -0.9998849630355835
      ],
      "type": "VEC3"
    },
    {
      "bufferView": 2,
      "byteOffset": 11216,
      "componentType": 5126,
      "count": 1382,
      "max": [
        0.5625846982002258,
        0.9738335609436035
      ],
      "min": [
        0.09409881383180618,
        0.1832103133201599
      ],
      "type": "VEC2"
    },
    {
      "bufferView": 1,
      "byteOffset": 25296,
      "componentType": 5125,
      "count": 6084,
      "type": "SCALAR"
    },
    {
      "bufferView": 5,
      "componentType": 5126,
      "count": 6,
      "max": [
        1.0,
        1.1723437309265137,
        1.1723437309265137,
        0.0,
        0.05262720584869385,
        1.0,
        1.1711622476577759,
        0.0,
        1.1723436117172241,
        9.219528607218308e-08,
        1.0,
        0.0,
        0.07949475944042206,
        1.9544997215270996,
        0.9152098894119263,
        1.0
      ],
      "min": [
        -1.2577420704928954e-07,
        -1.1723436117172241,
        -1.046256184577942,
        0.0,
        -0.0526273138821125,
        -1.1723438501358032,
        -0.5262534618377686,
        0.0,
        -1.1711618900299072,
        -0.00015288412396330386,
        -0.05286857485771179,
        0.0,
        -0.07949459552764893,
        0.0,
        -1.7696473598480225,
        1.0
      ],
      "type": "MAT4"
    },
    {
      "bufferView": 0,
      "componentType": 5123,
      "count": 1402,
      "type": "VEC4"
    },
    {
      "bufferView": 4,
      "componentType": 5126,
      "count": 1402,
      "max": [
        1.0,
        0.48450037837028503,
        0.0,
        0.0
      ],
      "min": [
        0.5154995918273926,
        0.0,
        0.0,
        0.0
      ],
      "type": "VEC4"
    },
    {
      "bufferView": 0,
      "byteOffset": 11216,
      "componentType": 5123,
      "count": 1382,
      "type": "VEC4"
    },
    {
      "bufferView": 4,
      "byteOffset": 22432,
      "componentType": 5126,
      "count": 1382,
      "max": [
        1.0,
        0.48450037837028503,
        0.0,
        0.0
      ],
      "min": [
        0.5154995918273926,
        0.0,
        0.0,
        0.0
      ],
      "type": "VEC4"
    },
    {
      "bufferView": 6,
      "componentType": 5126,
      "count": 27,
      "max": [
        3.3333332538604736
      ],
      "min": [
        0.0416666679084301
      ],
      "type": "SCALAR"
    },
    {
      "bufferView": 8,
      "componentType": 5126,
      "count": 27,
      "max": [
        -0.03539128974080086,
        -0.021929427981376648,
        0.005271472968161106,
        0.999118983745575
      ],
      "min": [
        -0.23085692524909973,
        -0.02253757230937481,
        0.0008636973216198385,
        0.9727262854576111
      ],
      "type": "VEC4"
    },
    {
      "bufferView": 6,
      "byteOffset": 108,
      "componentType": 5126,
      "count": 26,
      "max": [
        3.3333332538604736
      ],
      "min": [
        0.0416666679084301
      ],
      "type": "SCALAR"
    },
    {
      "bufferView": 7,
      "componentType": 5126,
      "count": 26,
      "max": [
        1.000000238418579,
        1.0000001192092896,
        1.0
      ],
      "min": [
        1.0000001192092896,
        1.0,
        0.9999999403953552
      ],
      "type": "VEC3"
    },
    {
      "bufferView": 6,
      "byteOffset": 212,
      "componentType": 5126,
      "count": 26,
      "max": [
        3.3333332538604736
      ],
      "min": [
        0.0416666679084301
      ],
      "type": "SCALAR"
    },
    {
      "bufferView": 7,
      "byteOffset": 312,
      "componentType": 5126,
      "count": 26,
      "max": [
        1.999155507803607e-09,
        0.19972173869609833,
        2.073726435014578e-08
      ],
      "min": [
        -1.6994141649462335e-09,
        0.19972169399261475,
        -3.251752289656906e-08
      ],
      "type": "VEC3"
    },
    {
      "bufferView": 6,
      "byteOffset": 316,
      "componentType": 5126,
      "count": 76,
      "max": [
        3.3333332538604736
      ],
      "min": [
        0.0416666679084301
      ],
      "type": "SCALAR"
    },
    {
      "bufferView": 8,
      "byteOffset": 432,
      "componentType": 5126,
      "count": 76,
      "max": [
        0.8502955436706543,
        1.651051024964545e-05,
        -0.034422218799591064,
        0.6450802683830261
      ],
      "min": [
        0.763339102268219,
        -1.4158586054691114e-06,
        -0.038330789655447006,
        0.5249079465866089
      ],
      "type": "VEC4"
    },
    {
      "bufferView": 6,
      "byteOffset": 620,
      "componentType": 5126,
      "count": 75,
      "max": [
        3.3333332538604736
      ],
      "min": [
        0.0416666679084301
      ],
      "type": "SCALAR"
    },
    {
      "bufferView": 7,
      "byteOffset": 624,
      "componentType": 5126,
      "count": 75,
      "max": [
        0.9999979734420776,
        0.9999979138374329,
        0.9999978542327881
      ],
      "min": [
        0.9999977350234985,
        0.999997615814209,
        0.9999976754188538
      ],
      "type": "VEC3"
    },
    {
      "bufferView": 6,
      "byteOffset": 920,
      "componentType": 5126,
      "count": 52,
      "max": [
        3.3333332538604736
      ],
      "min": [
        0.0416666679084301
      ],
      "type": "SCALAR"
    },
    {
      "bufferView": 8,
      "byteOffset": 1648,
      "componentType": 5126,
      "count": 52,
      "max": [
        0.005271522793918848,
        -0.9727262854576111,
        -0.03539120405912399,
        0.02253738045692444
      ],
      "min": [
        0.0008637037826701999,
        -0.999118983745575,
        -0.23085691034793854,
        0.021929245442152023
      ],
      "type": "VEC4"
    },
    {
      "bufferView": 6,
      "byteOffset": 1128,
      "componentType": 5126,
      "count": 46,
      "max": [
        3.3333332538604736
      ],
      "min": [
        0.0416666679084301
      ],
      "type": "SCALAR"
    },
    {
      "bufferView": 7,
      "byteOffset": 1524,
      "componentType": 5126,
      "count": 46,
      "max": [
        1.0,
        1.0000003576278687,
        1.0
      ],
      "min": [
        0.9999998211860657,
        1.000000238418579,
        0.9999998211860657
      ],
      "type": "VEC3"
    },
    {
      "bufferView": 6,
      "byteOffset": 1312,
      "componentType": 5126,
      "count": 50,
      "max": [
        3.3333332538604736
      ],
      "min": [
        0.0416666679084301
      ],
      "type": "SCALAR"
    },
    {
      "bufferView": 7,
      "byteOffset": 2076,
      "componentType": 5126,
      "count": 50,
      "max": [
        3.114122515412987e-09,
        0.19972175359725952,
        2.4287261979338837e-08
      ],
      "min": [
        -3.877543619523749e-09,
        0.19972172379493713,
        -2.8699910004093e-08
      ],
      "type": "VEC3"
    },
    {
      "bufferView": 6,
      "byteOffset": 1512,
      "componentType": 5126,
      "count": 70,
      "max": [
        3.3333332538604736
      ],
      "min": [
        0.0416666679084301
      ],
      "type": "SCALAR"
    },
    {
      "bufferView": 8,
      "byteOffset": 2480,
      "componentType": 5126,
      "count": 70,
      "max": [
        0.8502955436706543,
        1.4477955119218677e-06,
        0.03833086043596268,
        0.6450801491737366
      ],
      "min": [
        0.7633392214775085,
        -1.6490301277372055e-05,
        0.034422289580106735,
        0.5249077081680298
      ],
      "type": "VEC4"
    },
    {
      "bufferView": 6,
      "byteOffset": 1792,
      "componentType": 5126,
      "count": 66,
      "max": [
        3.3333332538604736
      ],
      "min": [
        0.0416666679084301
      ],
      "type": "SCALAR"
    },
    {
      "bufferView": 7,
      "byteOffset": 2676,
      "componentType": 5126,
      "count": 66,
      "max": [
        0.9999979734420776,
        0.9999980926513672,
        0.9999982714653015
      ],
      "min": [
        0.9999976754188538,
        0.9999977350234985,
        0.9999980926513672
      ],
      "type": "VEC3"
    }
  ],
  "animations": [
    {
      "channels": [
        {
          "sampler": 0,
          "target": {
            "node": 10,
            "path": "rotation"
          }
        },
        {
          "sampler": 1,
          "target": {
            "node": 10,
            "path": "scale"
          }
        },
        {
          "sampler": 2,
          "target": {
            "node": 11,
            "path": "translation"
          }
        },
        {
          "sampler": 3,
          "target": {
            "node": 11,
            "path": "rotation"
          }
        },
        {
          "sampler": 4,
          "target": {
            "node": 11,
            "path": "scale"
          }
        },
        {
          "sampler": 5,
          "target": {
            "node": 12,
            "path": "rotation"
          }
        },
        {
          "sampler": 6,
          "target": {
            "node": 12,
            "path": "scale"
          }
        },
        {
          "sampler": 7,
          "target": {
            "node": 13,
            "path": "translation"
          }
        },
        {
          "sampler": 8,
          "target": {
            "node": 13,
            "path": "rotation"
          }
        },
        {
          "sampler": 9,
          "target": {
            "node": 13,
            "path": "scale"
          }
        }
      ],
      "name": "Armature.001Action.003",
      "samplers": [
        {
          "input": 13,
          "interpolation": "LINEAR",
          "output": 14
        },
        {
          "input": 15,
          "interpolation": "LINEAR",
          "output": 16
        },
        {
          "input": 17,
          "interpolation": "LINEAR",
          "output": 18
        },
        {
          "input": 19,
          "interpolation": "LINEAR",
          "output": 20
        },
        {
          "input": 21,
          "interpolation": "LINEAR",
          "output": 22
        },
        {
          "input": 23,
          "interpolation": "LINEAR",
          "output": 24
        },
        {
          "input": 25,
          "interpolation": "LINEAR",
          "output": 26
        },
        {
          "input": 27,
          "interpolation": "LINEAR",
          "output": 28
        },
        {
          "input": 29,
          "interpolation": "LINEAR",
          "output": 30
        },
        {
          "input": 31,
          "interpolation": "LINEAR",
          "output": 32
        }
      ]
    }
  ],
  "asset": {
    "extras": {
      "author": "Jesus aponza (https://sketchfab.com/Jesusaponza)",
      "license": "CC-BY-4.0 (http://creativecommons.org/licenses/by/4.0/)",
      "source": "https://sketchfab.com/3d-models/stilized-lowpoly-headphones-rigged-ec880a582a77461e9c95c639a06cc376",
      "title": "stilized lowpoly headphones (rigged)"
    },
    "generator": "Sketchfab-13.68.0",
    "version": "2.0"
  },
  "bufferViews": [
    {
      "buffer": 0,
      "byteLength": 22272,
      "byteStride": 8,
      "name": "shortBufferViews",
      "target": 34962
    },
    {
      "buffer": 0,
      "byteLength": 49632,
      "byteOffset": 22272,
      "name": "floatBufferViews",
      "target": 34963
    },
    {
      "buffer": 0,
      "byteLength": 22272,
      "byteOffset": 71904,
      "byteStride": 8,
      "name": "floatBufferViews",
      "target": 34962
    },
    {
      "buffer": 0,
      "byteLength": 66816,
      "byteOffset": 94176,
      "byteStride": 12,
      "name": "floatBufferViews",
      "target": 34962
    },
    {
      "buffer": 0,
      "byteLength": 44544,
      "byteOffset": 160992,
      "byteStride": 16,
      "name": "floatBufferViews",
      "target": 34962
    },
    {
      "buffer": 0,
      "byteLength": 384,
      "byteOffset": 205536,
      "name": "floatBufferViews"
    },
    {
      "buffer": 0,
      "byteLength": 2056,
      "byteOffset": 205920,
      "name": "floatBufferViews"
    },
    {
      "buffer": 0,
      "byteLength": 3468,
      "byteOffset": 207976,
      "byteStride": 12,
      "name": "floatBufferViews"
    },
    {
      "buffer": 0,
      "byteLength": 3600,
      "byteOffset": 211444,
      "byteStride": 16,
      "name": "floatBufferViews"
    }
  ],
  "buffers": [
    {
      "byteLength": 215044,
      "uri": "scene.bin"
    }
  ],
  "extensionsUsed": [
    "KHR_materials_unlit"
  ],
  "images": [
    {
      "uri": "textures/color.001_baseColor.png"
    }
  ],
  "materials": [
    {
      "extensions": {
        "KHR_materials_unlit": {}
      },
      "name": "color.001",
      "pbrMetallicRoughness": {
        "baseColorTexture": {
          "index": 0
        },
        "metallicFactor": 0.0
      }
    },
    {
      "extensions": {
        "KHR_materials_unlit": {}
      },
      "name": "OUTLINE",
      "pbrMetallicRoughness": {
        "baseColorFactor": [
          0.0,
          0.0,
          0.0,
          1.0
        ],
        "metallicFactor": 0.0
      }
    }
  ],
  "meshes": [
    {
      "name": "Object_0",
      "primitives": [
        {
          "attributes": {
            "JOINTS_0": 9,
            "NORMAL": 1,
            "POSITION": 0,
            "TEXCOORD_0": 2,
            "WEIGHTS_0": 10
          },
          "indices": 3,
          "material": 0,
          "mode": 4
        }
      ]
    },
    {
      "name": "Object_1",
      "primitives": [
        {
          "attributes": {
            "JOINTS_0": 11,
            "NORMAL": 5,
            "POSITION": 4,
            "TEXCOORD_0": 6,
            "WEIGHTS_0": 12
          },
          "indices": 7,
          "material": 1,
          "mode": 4
        }
      ]
    }
  ],
  "nodes": [
    {
      "children": [
        1
      ],
      "matrix": [
        1.0,
        0.0,
        0.0,
        0.0,
        0.0,
        2.220446049250313e-16,
        -1.0,
        0.0,
        0.0,
        1.0,
        2.220446049250313e-16,
        0.0,
        0.0,
        0.0,
        0.0,
        1.0
      ],
      "name": "Sketchfab_model"
    },
    {
      "children": [
        2
      ],
      "name": "root"
    },
    {
      "children": [
        3
      ],
      "matrix": [
        1.0,
        0.0,
        0.0,
        0.0,
        0.0,
        2.220446049250313e-16,
        1.0,
        0.0,
        0.0,
        -1.0,
        2.220446049250313e-16,
        0.0,
        0.0,
        0.0,
        0.0,
        1.0
      ],
      "name": "GLTF_SceneRootNode"
    },
    {
      "children": [
        4
      ],
      "matrix": [
        -0.8529922366142239,
        0.0,
        7.45709497204349e-08,
        0.0,
        0.0,
        0.8529922366142273,
        0.0,
        0.0,
        -7.45709497204349e-08,
        0.0,
        -0.8529922366142239,
        0.0,
        0.0,
        1.6671727895736694,
        0.0,
        1.0
      ],
      "name": "HEADSET_6"
    },
    {
      "children": [
        5,
        7,
        8,
        6
      ],
      "name": "GLTF_created_0"
    },
    {
      "children": [
        9
      ],
      "name": "GLTF_created_0_rootJoint"
    },
    {
      "name": "HEAD_phones_5"
    },
    {
      "mesh": 0,
      "name": "Object_7",
      "skin": 0
    },
    {
      "mesh": 1,
      "name": "Object_8",
      "skin": 0
    },
    {
      "children": [
        10,
        12
      ],
      "name": "HP_4",
      "rotation": [
        -0.70710688829422,
        0.0,
        0.7071066498756409,
        4.2146840684154085e-08
      ],
      "scale": [
        0.9999998807907104,
        0.9999997615814209,
        0.9999998807907104
      ],
      "translation": [
        -4.699979427869039e-08,
        -9.656233146415616e-09,
        -2.811453123801634e-15
      ]
    },
    {
      "children": [
        11
      ],
      "name": "S.L_1",
      "rotation": [
        -0.23085694015026093,
        -0.021929427981376648,
        0.005271473433822393,
        0.9727262854576111
      ],
      "scale": [
        1.0000001192092896,
        1.0,
        1.0000001192092896
      ],
      "translation": [
        9.35805388735389e-09,
        0.004645791370421648,
        -0.04475318267941475
      ]
    },
    {
      "name": "B.L_0",
      "rotation": [
        0.8023508787155151,
        8.943429747887421e-06,
        -0.03617604449391365,
        0.595755398273468
      ],
      "scale": [
        0.9999979734420776,
        0.9999977946281433,
        0.9999977946281433
      ],
      "translation": [
        1.999155507803607e-09,
        0.19972172379493713,
        1.3969366996491317e-08
      ]
    },
    {
      "children": [
        13
      ],
      "name": "S.R_3",
      "rotation": [
        0.005271522793918848,
        -0.9727262854576111,
        -0.23085691034793854,
        0.021929245442152023
      ],
      "scale": [
        0.9999999403953552,
        1.0000003576278687,
        0.9999998807907104
      ],
      "translation": [
        -7.953182112885315e-09,
        0.004645798821002245,
        0.04475318267941475
      ]
    },
    {
      "name": "B.R_2",
      "rotation": [
        0.8023506999015808,
        -8.93092237674864e-06,
        0.03617611154913902,
        0.5957554578781128
      ],
      "scale": [
        0.9999978542327881,
        0.9999980330467224,
        0.9999980926513672
      ],
      "translation": [
        5.223402821386003e-10,
        0.19972172379493713,
        -2.1939605687748553e-09
      ]
    }
  ],
  "samplers": [
    {
      "magFilter": 9729,
      "minFilter": 9987,
      "wrapS": 10497,
      "wrapT": 10497
    }
  ],
  "scene": 0,
  "scenes": [
    {
      "name": "Sketchfab_Scene",
      "nodes": [
        0
      ]
    }
  ],
  "skins": [
    {
      "inverseBindMatrices": 8,
      "joints": [
        5,
        9,
        10,
        11,
        12,
        13
      ],
      "skeleton": 5
    }
  ],
  "textures": [
    {
      "sampler": 0,
      "source": 0
    }
  ]
}
